<?xml version="1.0" encoding="UTF-8"?>
<svg id="Shoe_Size" data-name="Shoe Size" xmlns="http://www.w3.org/2000/svg" viewBox="0 0 800 800">
  <defs>
    <style>
      .cls-1 {
        fill: #000;
        stroke-width: 0px;
      }
    </style>
  </defs>
  <path class="cls-1" d="M700,385.21h0c0-30.2-22.81-55.5-53.06-58.87-14.99-1.67-29.83-4.43-44.1-8.22-55.28-14.68-205.59-80.87-250.35-100.81-15.03-6.7-32.28-3.51-43.95,8.11l-52.35,52.12c-5.54,5.51-13.72,7.44-21.15,4.97l-58.86-19.53c-4.35-1.44-7.28-5.49-7.28-10.05v-5.57c0-10.68-8.69-19.33-19.42-19.33h-11.24c-15.54,0-28.4,12.03-29.38,27.47l-8.81,139.44c-.55,10.47,2.99,20.43,9.97,28.2v43.69c0,10.68,8.69,19.33,19.42,19.33h330.69c98.12,0,175.71-19.37,204.52-27.7,7.89-2.28,14.51-7.77,18.17-15.05l6.29-12.72c7-14.16,10.72-29.69,10.9-45.47h0ZM598,336.19c15.17,4.03,30.94,6.97,46.85,8.74,1.19.13,2.36.32,3.51.55-3.4,1.1-7.28,2.27-11.71,3.52-18.76,5.25-50.99,12.6-98,17.76-8.1.89-15.59,4.12-21.65,9.34l-13.93,12c-.68-.22-1.4-.37-2.15-.43-25.29-1.94-51.81-4.65-78.09-7.75l71.81-42.83c31.81.27,53.29-4.1,65.31-13.22,14.87,5.35,27.91,9.63,38.05,12.33ZM333.39,367.95c-9.95-1.47-19.55-2.93-28.71-4.36l61.48-36.66c4.33-2.58,9.43-3.51,14.36-2.62,6.89,1.25,13.63,2.4,20.22,3.47l-67.35,40.17ZM430.1,332.08c10.79,1.39,21.07,2.5,30.81,3.32l-68.35,40.76c-10.05-1.3-19.97-2.64-29.7-3.99l67.23-40.1ZM483.44,405l-25.68,22.11c-31.31-.83-59.61-2.7-87.2-4.53-35.58-2.36-72.34-4.79-115.34-4.99l-26.55-47.58c45.28,7.93,156.59,26.45,254.77,34.99ZM127.61,256.66c.36-5.57,5.02-9.93,10.63-9.93h11.24c.35,0,.63.28.63.62v5.57c0,12.63,8.09,23.81,20.13,27.8l58.86,19.53c14.27,4.73,29.74,1.1,40.38-9.49l52.35-52.12c6.11-6.09,15.14-7.76,22.99-4.26,3.51,1.57,7.34,3.27,11.43,5.08l-9.51,10.29c-3.51,3.8-3.27,9.72.55,13.22,1.8,1.65,4.09,2.47,6.36,2.47,2.53,0,5.06-1.02,6.92-3.02l13.81-14.95c5.12,2.25,10.5,4.61,16.08,7.04l-8.05,8.71c-3.51,3.8-3.27,9.72.55,13.22,1.8,1.65,4.09,2.47,6.36,2.47,2.53,0,5.06-1.02,6.92-3.02l12.45-13.47c5.28,2.28,10.67,4.6,16.16,6.95l-6.77,7.32c-3.51,3.8-3.27,9.72.55,13.22,1.8,1.65,4.09,2.47,6.36,2.47,2.53,0,5.06-1.02,6.92-3.02l11.26-12.18c5.38,2.28,10.81,4.57,16.25,6.85l-5.67,6.14c-3.51,3.8-3.27,9.72.55,13.22,1.8,1.65,4.09,2.47,6.36,2.47,2.53,0,5.06-1.02,6.92-3.02l10.29-11.13c19.84,8.19,39.5,16.1,57.6,23.04-26.7,6.98-80.88,3.98-151.56-8.83-9.41-1.71-19.14.06-27.38,4.98l-80.67,48.11c-29.88-4.87-51.87-8.8-60.49-10.37-11.23-14.32-26.26-25.4-43.52-31.85l-46.9-17.51,2.69-42.61ZM118.81,396l4.87-77.22,41.53,15.51c17.94,6.7,32.95,19.57,42.26,36.25l26.24,47.02h-94.26c-5.73,0-11.05-2.28-14.99-6.41-3.94-4.14-5.95-9.55-5.65-15.15ZM666.01,435.03c-1.32,2.64-3.73,4.62-6.6,5.45-21.87,6.32-100.89,26.96-199.28,26.96H129.44c-.35,0-.63-.28-.63-.62v-30.57c.21.01.42.02.63.02h120.25c44.78,0,82.83,2.52,119.62,4.97,37.1,2.46,75.47,5.01,120.88,5.01,80.2,0,149.16-15.37,182.37-24.27l-6.56,13.05ZM681.21,400.07c-22.31,6.6-100.09,27.47-191.02,27.47-1.41,0-2.79-.01-4.19-.02l43.3-37.29c3.12-2.69,7.18-4.43,11.42-4.89,76.94-8.45,116.71-22.57,129.45-27.84,6.88,7.28,11.04,17.04,11.04,27.7v14.86h0Z"/>
  <path class="cls-1" d="M712.96,516.15c-6.64,0-12.04,5.23-12.04,11.67v11.67H99.07v-11.67c0-6.44-5.39-11.67-12.04-11.67s-12.04,5.23-12.04,11.67v46.67c0,6.44,5.39,11.67,12.04,11.67s12.04-5.23,12.04-11.67v-11.67h601.85v11.67c0,6.44,5.39,11.67,12.04,11.67s12.04-5.23,12.04-11.67v-46.67c0-6.44-5.39-11.67-12.04-11.67Z"/>
</svg>